<?xml version="1.0" encoding="UTF-8"?>
<svg version="1.1" xmlns="http://www.w3.org/2000/svg" width="708" height="375">
<path d="M0 0 C233.64 0 467.28 0 708 0 C708 123.75 708 247.5 708 375 C474.36 375 240.72 375 0 375 C0 251.25 0 127.5 0 0 Z " fill="#FDFDFD" transform="translate(0,0)"/>
<path d="M0 0 C21.60916171 -0.04624625 43.21831155 -0.0819627 64.82751274 -0.10362434 C74.86044878 -0.11394838 84.89335356 -0.12803018 94.92626953 -0.15087891 C103.66829738 -0.17077835 112.41030259 -0.18370823 121.15235245 -0.18817699 C125.78360236 -0.19079023 130.41478749 -0.19695573 135.04601669 -0.21146011 C139.4010837 -0.22498966 143.75605899 -0.22923207 148.11114502 -0.22621536 C149.71319196 -0.22676761 151.31524183 -0.23077253 152.91727066 -0.23841095 C155.0974578 -0.24829999 157.27729448 -0.24599129 159.45748901 -0.24050903 C161.29093526 -0.24327441 161.29093526 -0.24327441 163.16142082 -0.24609566 C166 0 166 0 168 2 C168.25168228 4.20550442 168.25168228 4.20550442 168.25396729 7.00376892 C168.26242676 8.59166481 168.26242676 8.59166481 168.27105713 10.2116394 C168.26498444 11.96107346 168.26498444 11.96107346 168.25878906 13.74584961 C168.26404602 15.58248421 168.26404602 15.58248421 168.26940918 17.45622253 C168.27671871 20.81992084 168.27498362 24.18337408 168.26865101 27.54705882 C168.26359636 31.06372968 168.26828107 34.58038989 168.27142334 38.09706116 C168.27506503 44.00442388 168.27025909 49.91173665 168.26074219 55.8190918 C168.24986225 62.65146643 168.253379 69.48372166 168.264395 76.31609339 C168.27346811 82.17771361 168.27475289 88.03929786 168.26951766 93.90092283 C168.26639744 97.40371982 168.26598992 100.90646068 168.27259064 104.40925407 C168.27943516 108.31446861 168.26995087 112.21954923 168.25878906 116.12475586 C168.26283752 117.289021 168.26688599 118.45328613 168.27105713 119.65283203 C168.26541748 120.71424911 168.25977783 121.7756662 168.25396729 122.86924744 C168.25283621 124.2549539 168.25283621 124.2549539 168.25168228 125.66865444 C168 128 168 128 166 131 C163.04206848 131.37473011 163.04206848 131.37473011 159.16723633 131.3742218 C158.4564005 131.37819621 157.74556467 131.38217061 157.01318836 131.38626546 C154.61926893 131.39592875 152.22593457 131.38404653 149.83203125 131.37231445 C148.12071511 131.3747411 146.40940039 131.37845918 144.6980896 131.38337708 C140.04112222 131.39280719 135.38436424 131.38334292 130.72741318 131.37004495 C125.86230169 131.35875606 120.9972009 131.36283596 116.13208008 131.36479187 C107.9607398 131.36567566 99.78948235 131.35457674 91.61816406 131.33618164 C82.16030805 131.31501272 72.70257343 131.31150363 63.24469852 131.3177436 C54.16029819 131.32343115 45.07594077 131.3177988 35.99154663 131.30657005 C32.1191631 131.30191597 28.24680574 131.3010537 24.37442017 131.3031559 C19.8173892 131.30503456 15.26048242 131.29696761 10.70347977 131.2810955 C9.02726378 131.27683983 7.35103522 131.27601067 5.67481613 131.27878571 C3.39399404 131.28198978 1.11354716 131.27297104 -1.16723633 131.26069641 C-2.44593094 131.25864354 -3.72462555 131.25659067 -5.04206848 131.25447559 C-8 131 -8 131 -10 129 C-10.24050903 127.08908081 -10.24050903 127.08908081 -10.22705078 124.73388672 C-10.22689972 123.85312469 -10.22674866 122.97236267 -10.22659302 122.06491089 C-10.21627045 121.11278717 -10.20594788 120.16066345 -10.1953125 119.1796875 C-10.1924826 118.20589142 -10.18965271 117.23209534 -10.18673706 116.22879028 C-10.17551913 113.11073651 -10.1504117 109.99296732 -10.125 106.875 C-10.11497228 104.76432706 -10.10584607 102.65364962 -10.09765625 100.54296875 C-10.07557458 95.36188165 -10.04208129 90.18096115 -10 85 C-8.70964844 84.96261719 -7.41929687 84.92523438 -6.08984375 84.88671875 C-4.37236851 84.82102298 -2.65492185 84.7545769 -0.9375 84.6875 C-0.08994141 84.66494141 0.75761719 84.64238281 1.63085938 84.61914062 C8.22172528 84.33921968 13.34537645 83.38743742 18.40625 78.8359375 C20.61890867 76.23523795 22.82713476 73.6341226 25 71 C26.07121094 69.77216797 26.07121094 69.77216797 27.1640625 68.51953125 C27.81117188 67.74996094 28.45828125 66.98039062 29.125 66.1875 C29.99511719 65.15689453 29.99511719 65.15689453 30.8828125 64.10546875 C32.18023208 62.0550643 32.18023208 62.0550643 32.0078125 59.67578125 C30.58101514 55.88757896 28.29757253 53.11296068 25.75 50 C25.27175781 49.39671875 24.79351562 48.7934375 24.30078125 48.171875 C18.38243925 40.40426615 18.38243925 40.40426615 10 36 C6.56573239 35.63771989 3.13784368 35.49204346 -0.3125 35.375 C-1.24384766 35.33632812 -2.17519531 35.29765625 -3.13476562 35.2578125 C-5.42286539 35.16394174 -7.71140489 35.08089918 -10 35 C-10 31.7 -10 28.4 -10 25 C-6.7 25 -3.4 25 0 25 C0 16.75 0 8.5 0 0 Z " fill="#FCBF66" transform="translate(444,194)"/>
<path d="M0 0 C1.29038572 -0.00679667 1.29038572 -0.00679667 2.60683984 -0.01373065 C5.48861417 -0.02638802 8.37019985 -0.02475341 11.2519989 -0.02310181 C13.31855004 -0.02908623 15.38509894 -0.03589158 17.4516449 -0.04345703 C23.06535524 -0.06113331 28.67900462 -0.06581311 34.29274011 -0.0670886 C38.97957255 -0.06898771 43.6663908 -0.07634542 48.35321778 -0.08343279 C59.41177063 -0.09972067 70.47029091 -0.1046014 81.52885437 -0.10317993 C92.93449813 -0.10197849 104.33995267 -0.12308002 115.74554855 -0.15466726 C125.53933296 -0.18082365 135.33305555 -0.19154749 145.12687463 -0.19026911 C150.97559426 -0.18975928 156.82414575 -0.19545442 162.67283058 -0.21662521 C168.17468786 -0.23599663 173.67621642 -0.23613937 179.17808533 -0.22159195 C181.19526843 -0.21950138 183.21247205 -0.22421947 185.22961998 -0.23631287 C187.9879379 -0.25177625 190.74512397 -0.24244998 193.50341797 -0.22705078 C194.69483311 -0.24248147 194.69483311 -0.24248147 195.91031724 -0.25822389 C202.32993616 -0.17926994 207.59134959 1.69929758 212.40434265 6.03500366 C212.84608826 6.61701538 213.28783386 7.1990271 213.7429657 7.79867554 C214.24505554 8.44449585 214.74714539 9.09031616 215.26445007 9.75570679 C215.75622742 10.41957397 216.24800476 11.08344116 216.75468445 11.76742554 C217.26579773 12.43129272 217.77691101 13.09515991 218.30351257 13.77914429 C219.27833753 15.04933234 220.24274157 16.32761229 221.19462585 17.61508179 C222.50266107 19.39344407 222.50266107 19.39344407 224.3601532 21.42367554 C225.44218445 23.26742554 225.44218445 23.26742554 225.5164032 25.51742554 C223.87639103 29.71585668 221.12817998 32.83317068 218.25468445 36.26742554 C217.40680359 37.31543335 217.40680359 37.31543335 216.54179382 38.38461304 C207.70724205 49.11156021 207.70724205 49.11156021 201.44218445 50.26742554 C198.63422903 50.37003417 195.85071838 50.41957845 193.04258728 50.42132568 C192.18726811 50.42570794 191.33194894 50.43009019 190.45071101 50.43460524 C187.57970252 50.4479783 184.70872471 50.45416872 181.83769226 50.46029663 C179.78114178 50.46819868 177.72459268 50.4764677 175.66804504 50.4850769 C168.91047996 50.51128197 162.15290871 50.52660163 155.39530945 50.54086304 C153.06886033 50.54622307 150.74241126 50.55160058 148.41596222 50.55699539 C138.73943239 50.57862062 129.06290423 50.59735785 119.38635635 50.60861778 C105.51844565 50.62486131 91.65081492 50.65805325 77.78300977 50.71501863 C68.03171701 50.7537094 58.28049916 50.77324939 48.52913165 50.77853835 C42.70492972 50.78219254 36.88102651 50.79422182 31.05690765 50.82664108 C25.57719199 50.8567067 20.09795605 50.86303869 14.61817551 50.85125732 C12.60904274 50.85103648 10.5998878 50.85935079 8.59083176 50.87691116 C5.84321727 50.89961643 3.09734048 50.89130175 0.34971619 50.87542725 C-0.83688571 50.89625038 -0.83688571 50.89625038 -2.04745936 50.91749418 C-7.96896614 50.83346203 -11.96170189 48.98261409 -16.55781555 45.26742554 C-18.67132131 43.05565779 -20.50733939 40.73846027 -22.30781555 38.26742554 C-23.21924551 37.0590708 -24.13070335 35.8507371 -25.04219055 34.64242554 C-25.46564758 34.07137085 -25.88910461 33.50031616 -26.32539368 32.91195679 C-28.01707432 30.6545953 -29.7816423 28.45859254 -31.55781555 26.26742554 C-30.10079922 21.84780932 -27.82254874 18.90961426 -24.80781555 15.39242554 C-24.3589801 14.86793823 -23.91014465 14.34345093 -23.44770813 13.80307007 C-22.15244162 12.29001952 -20.85517624 10.77868082 -19.55781555 9.26742554 C-18.95840149 8.51976929 -18.35898743 7.77211304 -17.7414093 7.00180054 C-12.5183271 0.51045034 -8.03822786 -0.03108239 0 0 Z " fill="#3D81D1" transform="translate(251.5578155517578,228.73257446289063)"/>
<path d="M0 0 C16 0 16 0 19.4765625 2.4296875 C20.60473633 4.06152344 20.60473633 4.06152344 21.625 5.875 C22.49382486 7.170795 23.36503952 8.46498993 24.23828125 9.7578125 C24.90077881 10.79470215 24.90077881 10.79470215 25.57666016 11.85253906 C28.0974577 15.65578695 30.97919358 19.17731624 33.8125 22.75 C35.00168298 24.27733695 36.18916728 25.80599793 37.375 27.3359375 C39.80879371 30.4690518 42.24651373 33.59904884 44.6875 36.7265625 C45.59858521 37.89493652 45.59858521 37.89493652 46.52807617 39.08691406 C47.66540694 40.54526185 48.80350879 42.00300885 49.94262695 43.45996094 C54.71328594 49.58135304 59.34050114 55.78733485 64 62 C64.33 41.54 64.66 21.08 65 0 C70.28 0 75.56 0 81 0 C81 30.69 81 61.38 81 93 C67 93 67 93 63.578125 90.39453125 C62.36791992 88.68457031 62.36791992 88.68457031 61.25 86.8125 C60.35583004 85.51147037 59.46129107 84.21069428 58.56640625 82.91015625 C58.13730957 82.25031738 57.70821289 81.59047852 57.26611328 80.91064453 C55.38664114 78.07440292 53.2883492 75.42473971 51.1875 72.75 C50.36202321 71.67674768 49.53784617 70.60249466 48.71484375 69.52734375 C44.52767123 64.07824083 40.29991165 58.66057293 36.078125 53.23828125 C30.04929714 45.49435581 24.0252304 37.7467248 18 30 C17.67 50.79 17.34 71.58 17 93 C11.39 93 5.78 93 0 93 C0 62.31 0 31.62 0 0 Z " fill="#3C80D1" transform="translate(263,126)"/>
<path d="M0 0 C0 31.02 0 62.04 0 94 C-5.28 94 -10.56 94 -16 94 C-16.33 68.92 -16.66 43.84 -17 18 C-22.445 19.485 -22.445 19.485 -28 21 C-29.65 21 -31.3 21 -33 21 C-33.53341184 19.42085985 -34.05125763 17.83645613 -34.5625 16.25 C-34.85253906 15.36828125 -35.14257812 14.4865625 -35.44140625 13.578125 C-36.32916927 9.48075722 -36.32916927 9.48075722 -35 7 C-32.375 5.83984375 -32.375 5.83984375 -29 4.9375 C-25.0727483 3.85750578 -21.28330091 2.75343861 -17.5 1.25 C-13 0 -13 0 0 0 Z " fill="#3A7FD1" transform="translate(444,125)"/>
<path d="M0 0 C5.57929047 3.06296973 9.08447813 6.8741885 12.1875 12.375 C13.76034761 18.82367521 13.07905919 23.85331711 10.21875 29.7578125 C7.06277832 34.6495686 2.24133373 38.77413017 -3.1875 40.9375 C-9.69480656 41.71554752 -16.54074967 41.54713154 -22.1875 37.9375 C-26.6109839 33.8199883 -30.76566902 29.37100801 -31.5234375 23.203125 C-31.60958598 16.55246218 -31.26549339 11.36640761 -27.1875 5.9375 C-19.28771101 -1.96228899 -10.22755794 -4.65307816 0 0 Z " fill="#3D81D2" transform="translate(383.1875,127.0625)"/>
<path d="M0 0 C8.42801811 4.31820159 13.68326644 10.11194866 19.53125 17.39453125 C26.3918928 25.94908494 26.3918928 25.94908494 35.78125 31.14453125 C39.19244005 31.20656032 39.19244005 31.20656032 41.5390625 28.8828125 C44.50814382 25.40980453 46.34883928 21.94170005 48.28125 17.83203125 C48.62349609 17.12498047 48.96574219 16.41792969 49.31835938 15.68945312 C49.96947212 14.34297725 50.61670652 12.99461612 51.25927734 11.64404297 C52.17943976 9.71487859 53.1280015 7.80126548 54.09375 5.89453125 C55.08375 6.55453125 56.07375 7.21453125 57.09375 7.89453125 C56.57830171 13.26893876 55.2801333 17.15018691 52.78125 22.01953125 C52.18699219 23.19773437 51.59273438 24.3759375 50.98046875 25.58984375 C46.08286199 34.16826056 46.08286199 34.16826056 41.09375 35.89453125 C36.34345536 36.56866547 32.31819817 36.48226637 27.96875 34.39453125 C22.43358959 29.58134828 17.54201031 24.56284817 13.03125 18.76953125 C8.13389217 12.53043155 2.19654141 5.78681664 -6.0703125 4.578125 C-11.52750688 4.29522696 -14.71214389 5.16643693 -18.90625 8.89453125 C-23.38645747 13.5845556 -26.10003572 19.1231479 -28.90625 24.89453125 C-31.73152941 30.70482318 -34.51445972 36.08447523 -38.90625 40.89453125 C-39.41414063 41.49007812 -39.92203125 42.085625 -40.4453125 42.69921875 C-43.87777937 46.22929131 -46.4608268 47.3014297 -51.40625 47.45703125 C-57.93858588 47.06384003 -63.45363371 45.07420985 -68.41796875 40.671875 C-72.50273301 35.79374445 -76.28125 29.1379425 -76.28125 22.64453125 C-76.095625 21.28328125 -76.095625 21.28328125 -75.90625 19.89453125 C-74.25625 20.22453125 -72.60625 20.55453125 -70.90625 20.89453125 C-70.679375 22.04953125 -70.4525 23.20453125 -70.21875 24.39453125 C-68.67351874 30.4890098 -65.820934 35.07102267 -61.28125 39.39453125 C-56.43740579 41.5473509 -52.12053914 41.78223998 -46.90625 40.89453125 C-40.66541663 36.73397567 -37.27464729 28.4015173 -33.734375 21.93359375 C-26.35562714 8.4954044 -17.91056423 -6.81275494 0 0 Z " fill="#FBB34A" transform="translate(181.90625,268.10546875)"/>
<path d="M0 0 C4.33976986 2.25334204 7.09688482 4.45366929 9 9 C9.54700764 13.29791716 9.31502266 15.41495791 7.25 19.25 C2.79870524 24.69047137 2.79870524 24.69047137 -1.04296875 25.3515625 C-5.21318274 25.61700326 -8.10645472 25.4017412 -11.4375 22.75 C-14.81439385 19.12601636 -15.82874435 17.54130086 -16.375 12.625 C-15.92515417 8.27649031 -14.79790424 6.32723747 -12 3 C-8.07324125 -0.18385844 -4.98824428 -0.6125914 0 0 Z " fill="#F5F7FA" transform="translate(377,134)"/>
<path d="M0 0 C10.46879254 -0.3694868 10.46879254 -0.3694868 12.84765625 1.28515625 C14.68989368 4.02665534 14.11884262 6.79124939 14 10 C14.33 10.33 14.66 10.66 15 11 C15.25 13.4375 15.25 13.4375 15 16 C10.25368713 19.16420858 5.63243123 18.12112755 0 18 C0 12.06 0 6.12 0 0 Z " fill="#E1EBF8" transform="translate(257,243)"/>
<path d="M0 0 C0.99 0 1.98 0 3 0 C3 5.94 3 11.88 3 18 C-5.30078125 18.390625 -5.30078125 18.390625 -8 18 C-9.8671875 16.2109375 -9.8671875 16.2109375 -11 14 C-10.67272727 7.67272727 -10.67272727 7.67272727 -8 5 C-4.375 4.875 -4.375 4.875 -1 5 C-0.67 3.35 -0.34 1.7 0 0 Z " fill="#F2F6FC" transform="translate(415,243)"/>
<path d="M0 0 C2.54685809 0.0785782 3.81954973 0.17584047 6.0625 1.4375 C7.54799091 4.22279546 7.44300713 6.20502511 7.0625 9.3125 C6.0625 11.6875 6.0625 11.6875 4.0625 13.3125 C1.28686297 13.87919256 -1.16120769 13.872376 -3.9375 13.3125 C-6 11.75 -6 11.75 -6.9375 9.3125 C-6.62815348 3.33180065 -6.4509419 0.51197952 0 0 Z " fill="#F2F7FC" transform="translate(291.9375,247.6875)"/>
<path d="M0 0 C3.1875 -0.375 3.1875 -0.375 7 0 C11.42713428 4.04216608 11.98382649 5.90295896 13 12 C8.71 12 4.42 12 0 12 C0 8.04 0 4.08 0 0 Z " fill="#3B80D1" transform="translate(26,20)"/>
<path d="M0 0 C1.45742463 -0.08096803 2.91612807 -0.13917774 4.375 -0.1875 C5.18710937 -0.22230469 5.99921875 -0.25710937 6.8359375 -0.29296875 C7.55007813 -0.19628906 8.26421875 -0.09960938 9 0 C11.20914 3.31371 11.22481553 4.3446021 11.125 8.1875 C11.10695313 9.08855469 11.08890625 9.98960937 11.0703125 10.91796875 C11.03550781 11.94857422 11.03550781 11.94857422 11 13 C9.20866022 13.05391993 7.41686101 13.09275571 5.625 13.125 C4.62726563 13.14820313 3.62953125 13.17140625 2.6015625 13.1953125 C0 13 0 13 -2 11 C-1.75 8.4375 -1.75 8.4375 -1 6 C1.70879335 4.64560332 4.00933268 4.93498549 7 5 C6.67 4.34 6.34 3.68 6 3 C4.02 3 2.04 3 0 3 C0 2.01 0 1.02 0 0 Z " fill="#E1ECF8" transform="translate(430,248)"/>
<path d="M0 0 C1.32 0 2.64 0 4 0 C4 3.3 4 6.6 4 10 C4.5775 9.319375 5.155 8.63875 5.75 7.9375 C6.4925 7.298125 7.235 6.65875 8 6 C10.25 6.25 10.25 6.25 12 7 C11.484375 7.4125 10.96875 7.825 10.4375 8.25 C9.963125 8.8275 9.48875 9.405 9 10 C9.3171632 13.171632 10.77929188 16.07030051 12 19 C8.20411134 18.45773019 6.52788007 16.79872437 4 14 C4 15.65 4 17.3 4 19 C2.68 19 1.36 19 0 19 C0 12.73 0 6.46 0 0 Z " fill="#DBE8F6" transform="translate(302,242)"/>
<path d="M0 0 C0.70125 -0.01675781 1.4025 -0.03351562 2.125 -0.05078125 C2.74375 0.06910156 3.3625 0.18898438 4 0.3125 C6.31282587 3.78173881 6.42478586 5.23455575 6 9.3125 C4.875 11.1875 4.875 11.1875 3 12.3125 C-0.11811483 12.70226435 -2.11019567 12.81672245 -4.875 11.25 C-6.61973477 8.24517901 -6.30835443 5.70439869 -6 2.3125 C-3.67471713 -0.01278287 -3.15334102 0.01738975 0 0 Z " fill="#4E8CD6" transform="translate(88,19.6875)"/>
<path d="M0 0 C1.9375 1.75 1.9375 1.75 3 4 C3 5.32 3 6.64 3 8 C0.03 8 -2.94 8 -6 8 C-5.67 8.66 -5.34 9.32 -5 10 C-2.69 10 -0.38 10 2 10 C1.67 10.99 1.34 11.98 1 13 C-6.40256709 13.48541424 -6.40256709 13.48541424 -9 11.375 C-10.2766188 8.34303035 -10.41616519 6.25996064 -10 3 C-7.72375139 -1.01690931 -4.20725277 -0.5259066 0 0 Z " fill="#C0D6F0" transform="translate(326,248)"/>
<path d="M0 0 C6.8359375 -0.1953125 6.8359375 -0.1953125 9 0 C11 2 11 2 11.375 5.4375 C11 9 11 9 9.4375 10.9375 C6.19917389 12.34907805 3.49186021 12.20145347 0 12 C0 8.04 0 4.08 0 0 Z " fill="#5A94D9" transform="translate(96,20)"/>
<path d="M0 0 C8.3984375 -0.29296875 8.3984375 -0.29296875 11 0 C13.20914 3.31371 13.22481553 4.3446021 13.125 8.1875 C13.10695313 9.08855469 13.08890625 9.98960937 13.0703125 10.91796875 C13.03550781 11.94857422 13.03550781 11.94857422 13 13 C11.68 13 10.36 13 9 13 C8.67 9.7 8.34 6.4 8 3 C7.01 3 6.02 3 5 3 C4.67 6.3 4.34 9.6 4 13 C2.68 13 1.36 13 0 13 C0 8.71 0 4.42 0 0 Z " fill="#D7E5F5" transform="translate(357,248)"/>
<path d="M0 0 C6.0546875 -0.1953125 6.0546875 -0.1953125 8 0 C8.66 0.66 9.32 1.32 10 2 C9.70241581 4.3381615 9.36760731 6.67182036 9 9 C9.33 9.99 9.66 10.98 10 12 C9.01 12 8.02 12 7 12 C6.34 11.01 5.68 10.02 5 9 C4.01 8.67 3.02 8.34 2 8 C2 9.32 2 10.64 2 12 C1.34 12 0.68 12 0 12 C0 8.04 0 4.08 0 0 Z " fill="#8EB6E5" transform="translate(70,20)"/>
<path d="M0 0 C3.63 0 7.26 0 11 0 C12.32229189 2.64458379 12.09677194 4.67761301 12.0625 7.625 C12.05347656 8.62789063 12.04445313 9.63078125 12.03515625 10.6640625 C12.02355469 11.43492187 12.01195312 12.20578125 12 13 C11.01 13 10.02 13 9 13 C8.67 9.7 8.34 6.4 8 3 C6.68 3.33 5.36 3.66 4 4 C3.67 6.97 3.34 9.94 3 13 C2.01 13 1.02 13 0 13 C0 8.71 0 4.42 0 0 Z " fill="#F0F5FB" transform="translate(389,248)"/>
<path d="M0 0 C0.99 0 1.98 0 3 0 C3 1.32 3 2.64 3 4 C4.65 4 6.3 4 8 4 C8 2.68 8 1.36 8 0 C8.99 0 9.98 0 11 0 C11 3.96 11 7.92 11 12 C10.01 12 9.02 12 8 12 C8 10.35 8 8.7 8 7 C6.35 7 4.7 7 3 7 C3 8.65 3 10.3 3 12 C2.01 12 1.02 12 0 12 C0 8.04 0 4.08 0 0 Z " fill="#649ADB" transform="translate(109,20)"/>
<path d="M0 0 C1.859375 0.22265625 1.859375 0.22265625 4 1 C5.265625 2.99609375 5.265625 2.99609375 6.25 5.4375 C6.58515625 6.24058594 6.9203125 7.04367188 7.265625 7.87109375 C8 10 8 10 8 12 C7.01 12 6.02 12 5 12 C5 11.01 5 10.02 5 9 C2.02934491 9.34227572 2.02934491 9.34227572 -1 10 C-1.33 10.66 -1.66 11.32 -2 12 C-2.66 12 -3.32 12 -4 12 C-3.45660208 7.43545749 -2.20536179 4.0271824 0 0 Z " fill="#4989D5" transform="translate(126,20)"/>
<path d="M0 0 C1.32 0 2.64 0 4 0 C4 5.94 4 11.88 4 18 C2.68 18 1.36 18 0 18 C0 12.06 0 6.12 0 0 Z " fill="#C9DCF2" transform="translate(381,243)"/>
<path d="M0 0 C2.97 0 5.94 0 9 0 C9 0.66 9 1.32 9 2 C6.69 2 4.38 2 2 2 C2 2.99 2 3.98 2 5 C3.98 5 5.96 5 8 5 C8 5.66 8 6.32 8 7 C6.02 7 4.04 7 2 7 C2 7.66 2 8.32 2 9 C4.31 9 6.62 9 9 9 C9 9.99 9 10.98 9 12 C6.03 12 3.06 12 0 12 C0 8.04 0 4.08 0 0 Z " fill="#5490D7" transform="translate(59,20)"/>
<path d="M0 0 C2.97 0 5.94 0 9 0 C7.96846241 4.12615036 6.71595986 5.8459821 4 9 C5.65 9 7.3 9 9 9 C9.33 9.99 9.66 10.98 10 12 C6.37 12 2.74 12 -1 12 C0.77842999 7.55392503 1.64414533 6.0202692 5 3 C3.35 2.67 1.7 2.34 0 2 C0 1.34 0 0.68 0 0 Z " fill="#6199DA" transform="translate(47,20)"/>
<path d="M0 0 C4.55555556 0.55555556 4.55555556 0.55555556 6 2 C6.1875 4.4375 6.1875 4.4375 6 7 C5.34 7.66 4.68 8.32 4 9 C-0.55555556 8.44444444 -0.55555556 8.44444444 -2 7 C-2.1875 4.5625 -2.1875 4.5625 -2 2 C-1.34 1.34 -0.68 0.68 0 0 Z " fill="#4586D4" transform="translate(409,250)"/>
<path d="M0 0 C4.55555556 0.55555556 4.55555556 0.55555556 6 2 C6.1875 4.4375 6.1875 4.4375 6 7 C5.34 7.66 4.68 8.32 4 9 C1.375 8.625 1.375 8.625 -1 8 C-1.625 5.125 -1.625 5.125 -2 2 C-1.34 1.34 -0.68 0.68 0 0 Z " fill="#4687D4" transform="translate(290,250)"/>
<path d="M0 0 C1.32 0.33 2.64 0.66 4 1 C6.18703385 0.62092718 6.18703385 0.62092718 8 0 C8 0.99 8 1.98 8 3 C7.01 3.33 6.02 3.66 5 4 C4.19436362 6.10584438 4.19436362 6.10584438 3.8125 8.5625 C3.65394531 9.38878906 3.49539063 10.21507812 3.33203125 11.06640625 C3.22246094 11.70449219 3.11289062 12.34257812 3 13 C2.01 13 1.02 13 0 13 C0 8.71 0 4.42 0 0 Z " fill="#EFF5FB" transform="translate(332,248)"/>
<path d="M0 0 C2.625 0.375 2.625 0.375 5 1 C5.625 3.375 5.625 3.375 6 6 C4 8 4 8 1.4375 8.1875 C-1 8 -1 8 -2 7 C-2.1875 4.5625 -2.1875 4.5625 -2 2 C-1.34 1.34 -0.68 0.68 0 0 Z " fill="#57C8AB" transform="translate(310,80)"/>
<path d="M0 0 C2.31 0 4.62 0 7 0 C7 0.99 7 1.98 7 3 C6.01 3.66 5.02 4.32 4 5 C3.42251197 6.96361864 3.42251197 6.96361864 3.3125 9.125 C3.209375 10.40375 3.10625 11.6825 3 13 C2.01 13 1.02 13 0 13 C0 8.71 0 4.42 0 0 Z " fill="#EFF5FB" transform="translate(276,248)"/>
<path d="M0 0 C1.98 0.66 3.96 1.32 6 2 C6 3.98 6 5.96 6 8 C4.02 8.66 2.04 9.32 0 10 C-0.33 9.01 -0.66 8.02 -1 7 C-1.66 6.67 -2.32 6.34 -3 6 C-3 5.34 -3 4.68 -3 4 C-2.34 3.67 -1.68 3.34 -1 3 C-0.67 2.01 -0.34 1.02 0 0 Z " fill="#EE70A4" transform="translate(414,48)"/>
<path d="M0 0 C2.625 0.375 2.625 0.375 5 1 C5.6875 2.8125 5.6875 2.8125 6 5 C4.8125 6.8125 4.8125 6.8125 3 8 C0.8125 7.6875 0.8125 7.6875 -1 7 C-1.625 4.625 -1.625 4.625 -2 2 C-1.34 1.34 -0.68 0.68 0 0 Z " fill="#EFF4FB" transform="translate(86,22)"/>
<path d="M0 0 C0.8971875 0.5259375 0.8971875 0.5259375 1.8125 1.0625 C4.10813214 2.33304698 4.10813214 2.33304698 7 1 C8.0625 3.375 8.0625 3.375 9 6 C8.67 6.66 8.34 7.32 8 8 C5.66705225 8.04241723 3.33297433 8.04092937 1 8 C0 7 0 7 -0.0625 3.4375 C-0.041875 2.303125 -0.02125 1.16875 0 0 Z " fill="#DBDBDB" transform="translate(494,338)"/>
<path d="M0 0 C0 3.96 0 7.92 0 12 C-0.33 11.34 -0.66 10.68 -1 10 C-3.32156597 9.59270772 -5.6568787 9.25561323 -8 9 C-6.78641212 6.02119338 -3.58154637 0 0 0 Z " fill="#EEF4FA" transform="translate(59,20)"/>
<path d="M0 0 C0.66 0 1.32 0 2 0 C3.08416595 3.9029974 2.92020735 5.49844542 1 9 C1 10.32 1 11.64 1 13 C-0.32 12.34 -1.64 11.68 -3 11 C-3.20086443 7.28400809 -3.1519437 6.22791555 -1 3 C-0.67 2.01 -0.34 1.02 0 0 Z " fill="#FED072" transform="translate(466,109)"/>
<path d="M0 0 C2.64 0 5.28 0 8 0 C8.33 0.99 8.66 1.98 9 3 C6.69 2.67 4.38 2.34 2 2 C2 3.32 2 4.64 2 6 C2.99 6.33 3.98 6.66 5 7 C4.01 7 3.02 7 2 7 C2 8.65 2 10.3 2 12 C1.34 12 0.68 12 0 12 C0 8.04 0 4.08 0 0 Z " fill="#3F82D2" transform="translate(70,20)"/>
<path d="M0 0 C0.99 0 1.98 0 3 0 C3 4.29 3 8.58 3 13 C2.01 13 1.02 13 0 13 C0 8.71 0 4.42 0 0 Z " fill="#EEF4FB" transform="translate(422,248)"/>
<path d="M0 0 C2.31 0 4.62 0 7 0 C7.5625 1.9375 7.5625 1.9375 8 4 C7 5 7 5 3.4375 5.0625 C2.303125 5.041875 1.16875 5.02125 0 5 C0 3.35 0 1.7 0 0 Z " fill="#508DD6" transform="translate(260,246)"/>
<path d="M0 0 C2.475 0.495 2.475 0.495 5 1 C5.38218767 2.65614657 5.71395102 4.32457024 6 6 C5 7 5 7 2.4375 7.0625 C1.2309375 7.0315625 1.2309375 7.0315625 0 7 C0 4.69 0 2.38 0 0 Z " fill="#F6F9FD" transform="translate(99,22)"/>
<path d="M0 0 C0.66 0.33 1.32 0.66 2 1 C2 1.66 2 2.32 2 3 C2.99 3.33 3.98 3.66 5 4 C4.34 5.32 3.68 6.64 3 8 C1.35 8 -0.3 8 -2 8 C-2.66 6.35 -3.32 4.7 -4 3 C-3.01 2.67 -2.02 2.34 -1 2 C-0.67 1.34 -0.34 0.68 0 0 Z " fill="#F16655" transform="translate(212,179)"/>
<path d="M0 0 C2.625 0.3125 2.625 0.3125 4.4375 2.125 C5.625 4.3125 5.625 4.3125 5.625 7.3125 C2.655 7.3125 -0.315 7.3125 -3.375 7.3125 C-3.375 6.9825 -3.375 6.6525 -3.375 6.3125 C-1.395 6.3125 0.585 6.3125 2.625 6.3125 C0.6177092 3.3015638 -0.21384224 2.68233503 -3.375 1.3125 C-2.375 0.3125 -2.375 0.3125 0 0 Z " fill="#F7FAFD" transform="translate(323.375,247.6875)"/>
<path d="M0 0 C0.8971875 0.5259375 0.8971875 0.5259375 1.8125 1.0625 C1.8125 2.3825 1.8125 3.7025 1.8125 5.0625 C1.1525 5.0625 0.4925 5.0625 -0.1875 5.0625 C-0.1875 3.7425 -0.1875 2.4225 -0.1875 1.0625 C-0.8475 1.0625 -1.5075 1.0625 -2.1875 1.0625 C-2.1875 2.3825 -2.1875 3.7025 -2.1875 5.0625 C-2.8475 5.0625 -3.5075 5.0625 -4.1875 5.0625 C-4.1875 4.4025 -4.1875 3.7425 -4.1875 3.0625 C-6.1675 3.3925 -8.1475 3.7225 -10.1875 4.0625 C-9.8575 3.0725 -9.5275 2.0825 -9.1875 1.0625 C-8.1975 1.3925 -7.2075 1.7225 -6.1875 2.0625 C-5.8575 1.4025 -5.5275 0.7425 -5.1875 0.0625 C-2.1875 -0.9375 -2.1875 -0.9375 0 0 Z " fill="#D1D1D1" transform="translate(491.1875,339.9375)"/>
<path d="M0 0 C2.64 0 5.28 0 8 0 C8 1.32 8 2.64 8 4 C5.36 4 2.72 4 0 4 C0 2.68 0 1.36 0 0 Z " fill="#3C81D2" transform="translate(261,254)"/>
<path d="M0 0 C-0.33 2.64 -0.66 5.28 -1 8 C-2.32 8.33 -3.64 8.66 -5 9 C-4.4140625 2.84765625 -4.4140625 2.84765625 -4 1 C-2 0 -2 0 0 0 Z " fill="#F186B2" transform="translate(258,65)"/>
<path d="M0 0 C0.99 0 1.98 0 3 0 C3.25 6.625 3.25 6.625 1 10 C0.34 10 -0.32 10 -1 10 C-0.67 6.7 -0.34 3.4 0 0 Z " fill="#7059A8" transform="translate(516,95)"/>
<path d="M0 0 C4.24822374 0.47202486 6.19989709 2.96655518 9 6 C8.34 6.66 7.68 7.32 7 8 C3.83282717 6.41641358 2.26731682 5.54736301 0.6875 2.3125 C0.460625 1.549375 0.23375 0.78625 0 0 Z " fill="#FFCE69" transform="translate(232,28)"/>
<path d="M0 0 C1.32 0 2.64 0 4 0 C4.625 1.875 4.625 1.875 5 4 C4.34 4.66 3.68 5.32 3 6 C0.875 5.625 0.875 5.625 -1 5 C-0.67 3.35 -0.34 1.7 0 0 Z " fill="#FEF6E9" transform="translate(464,201)"/>
<path d="M0 0 C1.98 0.495 1.98 0.495 4 1 C4 3.31 4 5.62 4 8 C2 7 2 7 -1 5 C-0.67 3.35 -0.34 1.7 0 0 Z " fill="#D3D3D3" transform="translate(610,337)"/>
<path d="M0 0 C1.65 0.33 3.3 0.66 5 1 C5 2.32 5 3.64 5 5 C3.68 5.33 2.36 5.66 1 6 C-0.0625 4.125 -0.0625 4.125 -1 2 C-0.67 1.34 -0.34 0.68 0 0 Z " fill="#FEF6EA" transform="translate(453,201)"/>
<path d="M0 0 C1.32 0.99 2.64 1.98 4 3 C3.34 4.32 2.68 5.64 2 7 C0.68 7 -0.64 7 -2 7 C-2.33 5.35 -2.66 3.7 -3 2 C-2.01 1.34 -1.02 0.68 0 0 Z " fill="#5BC9AD" transform="translate(330,32)"/>
<path d="M0 0 C1.32 0.33 2.64 0.66 4 1 C3.67 2.98 3.34 4.96 3 7 C1.35 6.67 -0.3 6.34 -2 6 C-1.34 4.02 -0.68 2.04 0 0 Z " fill="#74A5DF" transform="translate(126,20)"/>
<path d="M0 0 C2.97 0 5.94 0 9 0 C8.67 1.32 8.34 2.64 8 4 C6.68 4.33 5.36 4.66 4 5 C4.33 4.34 4.66 3.68 5 3 C3.35 2.67 1.7 2.34 0 2 C0 1.34 0 0.68 0 0 Z " fill="#4B8AD5" transform="translate(47,20)"/>
<path d="M0 0 C0.33 0.66 0.66 1.32 1 2 C-0.32 2 -1.64 2 -3 2 C-2.67 3.32 -2.34 4.64 -2 6 C-2.66 6 -3.32 6 -4 6 C-4.66 5.34 -5.32 4.68 -6 4 C-6.66 4.66 -7.32 5.32 -8 6 C-8 4.35 -8 2.7 -8 1 C-5.29120665 -0.35439668 -2.99066732 -0.06501451 0 0 Z " fill="#D0D0D0" transform="translate(538,339)"/>
<path d="M0 0 C3.375 -0.1875 3.375 -0.1875 7 0 C7.66 0.99 8.32 1.98 9 3 C5.93109813 4.53445094 3.29905734 3.54984289 0 3 C0 2.01 0 1.02 0 0 Z " fill="#EF76A8" transform="translate(157,125)"/>
<path d="M0 0 C2.475 0.99 2.475 0.99 5 2 C4.34 3.32 3.68 4.64 3 6 C1.68 6 0.36 6 -1 6 C-1.33 4.68 -1.66 3.36 -2 2 C-1.34 2 -0.68 2 0 2 C0 1.34 0 0.68 0 0 Z " fill="#FFCE6B" transform="translate(176,156)"/>
<path d="M0 0 C5.75 0.875 5.75 0.875 8 2 C8 2.99 8 3.98 8 5 C5.03 4.01 2.06 3.02 -1 2 C-0.67 1.34 -0.34 0.68 0 0 Z " fill="#F37566" transform="translate(565,132)"/>
<path d="M0 0 C1.65 0 3.3 0 5 0 C3.02 4.455 3.02 4.455 1 9 C0.67 9 0.34 9 0 9 C0 6.03 0 3.06 0 0 Z " fill="#F16250" transform="translate(478,35)"/>
<path d="M0 0 C1.98 0.495 1.98 0.495 4 1 C4 2.65 4 4.3 4 6 C2.68 6.33 1.36 6.66 0 7 C0 4.66666667 0 2.33333333 0 0 Z " fill="#CFCFCF" transform="translate(587,339)"/>
<path d="M0 0 C0.66 0 1.32 0 2 0 C2.99 2.31 3.98 4.62 5 7 C4.34 7 3.68 7 3 7 C3 6.34 3 5.68 3 5 C1.68 5 0.36 5 -1 5 C-1 5.66 -1 6.32 -1 7 C-1.66 6.67 -2.32 6.34 -3 6 C-2.01 4.02 -1.02 2.04 0 0 Z " fill="#CACACA" transform="translate(435,338)"/>
<path d="M0 0 C0 2.64 0 5.28 0 8 C-1.32 8 -2.64 8 -4 8 C-4 5.69 -4 3.38 -4 1 C-2 0 -2 0 0 0 Z " fill="#DCDCDC" transform="translate(480,337)"/>
<path d="M0 0 C0.66 0.99 1.32 1.98 2 3 C4.56282742 3.72965366 4.56282742 3.72965366 7 4 C6.67 4.66 6.34 5.32 6 6 C4.02 6 2.04 6 0 6 C-0.38218767 4.34385343 -0.71395102 2.67542976 -1 1 C-0.67 0.67 -0.34 0.34 0 0 Z " fill="#F6F9FD" transform="translate(430,255)"/>
<path d="M0 0 C1.65 0 3.3 0 5 0 C4.67 1.32 4.34 2.64 4 4 C2.35 3.67 0.7 3.34 -1 3 C-0.67 2.01 -0.34 1.02 0 0 Z " fill="#4586D4" transform="translate(432,255)"/>
<path d="M0 0 C0.33 0 0.66 0 1 0 C1.268125 0.94875 1.53625 1.8975 1.8125 2.875 C2.74986588 6.25267273 2.74986588 6.25267273 6 8 C3.625 8.125 3.625 8.125 1 8 C-1 6 -1 6 -1.1875 3.4375 C-1 1 -1 1 0 0 Z " fill="#3B80D1" transform="translate(83,23)"/>
<path d="M0 0 C0.99 0.33 1.98 0.66 3 1 C2.01 2.32 1.02 3.64 0 5 C0.99 5.33 1.98 5.66 3 6 C1.68 6 0.36 6 -1 6 C-1.625 4.125 -1.625 4.125 -2 2 C-1.34 1.34 -0.68 0.68 0 0 Z " fill="#D1D1D1" transform="translate(518,339)"/>
<path d="M0 0 C0.99 0.33 1.98 0.66 3 1 C2.01 2.32 1.02 3.64 0 5 C0.99 5.33 1.98 5.66 3 6 C1.68 6 0.36 6 -1 6 C-1.625 4.125 -1.625 4.125 -2 2 C-1.34 1.34 -0.68 0.68 0 0 Z " fill="#D2D2D2" transform="translate(471,339)"/>
<path d="M0 0 C2.31 0 4.62 0 7 0 C7.33 0.66 7.66 1.32 8 2 C5.69 2.33 3.38 2.66 1 3 C0.67 2.01 0.34 1.02 0 0 Z " fill="#4586D4" transform="translate(320,256)"/>
<path d="M0 0 C0.99 0.33 1.98 0.66 3 1 C3.33 2.65 3.66 4.3 4 6 C3.01 6 2.02 6 1 6 C0 5 0 5 -0.0625 2.4375 C-0.041875 1.633125 -0.02125 0.82875 0 0 Z " fill="#FFCF6E" transform="translate(537,161)"/>
<path d="M0 0 C0.99 0 1.98 0 3 0 C1.125 3.875 1.125 3.875 0 5 C-1.99958364 5.04080783 -4.00045254 5.04254356 -6 5 C-4.68 4.67 -3.36 4.34 -2 4 C-2 3.34 -2 2.68 -2 2 C-1.34 2 -0.68 2 0 2 C0 1.34 0 0.68 0 0 Z " fill="#5F97DA" transform="translate(91,27)"/>
<path d="M0 0 C0.6875 2.0625 0.6875 2.0625 1 4 C0.01 4 -0.98 4 -2 4 C-2 3.01 -2 2.02 -2 1 C-3.98 1 -5.96 1 -8 1 C-8 0.67 -8 0.34 -8 0 C-4.71303767 -0.79953138 -3.28976808 -1.09658936 0 0 Z " fill="#5C95D9" transform="translate(133,28)"/>
<path d="M0 0 C0.99 0.33 1.98 0.66 3 1 C3 2.32 3 3.64 3 5 C1.68 4.67 0.36 4.34 -1 4 C-0.67 2.68 -0.34 1.36 0 0 Z " fill="#D5D5D6" transform="translate(117,236)"/>
</svg>
